<?xml version="1.0" encoding="UTF-8"?><svg xmlns="http://www.w3.org/2000/svg" version="1.1" width="343" height="343" viewBox="0 0 400 400"><path d="M0 0 C1.20076869 2.40153738 0.94835426 3.59926579 0.75 6.25 C0.71970262 10.01899389 0.98958735 10.98296112 3.0625 14.375 C8.20730821 18.97248819 13.94622306 20.46589305 20.63671875 21.5625 C21.72855721 21.74800415 21.72855721 21.74800415 22.842453 21.93725586 C33.00064857 23.58363697 43.26418672 24.35817146 53.51147461 25.22949219 C70.68943606 26.70763573 90.39372276 28.40546188 102.671875 42.171875 C107.63167771 48.99889755 109.11768194 55.27169552 109.31640625 63.609375 C109.33718735 64.33618469 109.35796844 65.06299438 109.37937927 65.81182861 C109.44455512 68.12445991 109.5036104 70.43720093 109.5625 72.75 C109.60571566 74.32162575 109.64933092 75.89324056 109.69335938 77.46484375 C109.80020356 81.30978453 109.90156024 85.15483524 110 89 C112.31 89.33 114.62 89.66 117 90 C117.17343355 97.20880318 116.50804313 104.10785094 115.5625 111.25 C115.42779297 112.3121875 115.29308594 113.374375 115.15429688 114.46875 C114.56859349 119.01723675 113.94100796 123.50954046 113 128 C112.01 128.33 111.02 128.66 110 129 C109.88399643 136.47573274 109.79523016 143.95127049 109.74093914 151.42772198 C109.71487773 154.89964849 109.67954613 158.37095792 109.62280273 161.8425293 C109.55793166 165.83648499 109.53379138 169.82979558 109.51171875 173.82421875 C109.48591232 175.06709152 109.4601059 176.30996429 109.43351746 177.59049988 C109.30677765 184.37167864 109.30677765 184.37167864 112.390625 190.18798828 C113.25171875 190.78595215 114.1128125 191.38391602 115 192 C116.43924544 193.39403354 117.87688127 194.78973185 119.3125 196.1875 C120.00988281 196.86167969 120.70726562 197.53585938 121.42578125 198.23046875 C123 200 123 200 123 202 C108.09225454 202.07010313 93.18452186 202.12299455 78.27664661 202.15543652 C71.35454102 202.17090076 64.43253788 202.19198168 57.51049805 202.22631836 C50.83209001 202.25943069 44.15381048 202.2768466 37.475317 202.28463173 C34.92558808 202.29018076 32.37586507 202.30101644 29.82618141 202.31719017 C26.258748 202.33892276 22.69175639 202.3419686 19.12426758 202.34057617 C18.06690903 202.351362 17.00955048 202.36214783 15.92015076 202.3732605 C9.2450015 202.34501192 5.70025185 201.55023786 0.75 196.875 C-3.44480671 189.98353184 -2.20495872 179.72980683 -2.31640625 171.87109375 C-2.33718735 170.64084976 -2.35796844 169.41060577 -2.37937927 168.14308167 C-2.4443833 164.24127395 -2.50352978 160.3394031 -2.5625 156.4375 C-2.60525553 153.78058412 -2.64934774 151.12369249 -2.69335938 148.46679688 C-2.80001386 141.97792991 -2.90186847 135.48900116 -3 129 C-3.99 128.67 -4.98 128.34 -6 128 C-6.48212636 124.85461305 -6.96014325 121.70861404 -7.4375 118.5625 C-7.57220703 117.68400391 -7.70691406 116.80550781 -7.84570312 115.90039062 C-9.16101256 107.20651604 -10.13968639 98.80024263 -10 90 C9.8835035 86.86776861 30.4272111 87.87197201 50.50061035 87.93133545 C54.40339605 87.94174205 58.30618867 87.9461694 62.20898438 87.95117188 C69.80600788 87.96175458 77.4029981 87.97871961 85 88 C83.21432292 94.1065874 81.32097804 100.14371183 79.15234375 106.125 C78.8949794 106.83857666 78.63761505 107.55215332 78.37245178 108.28735352 C77.83528767 109.77331356 77.29666119 111.25874576 76.7565918 112.74365234 C75.92989668 115.02094483 75.11229763 117.30137971 74.29492188 119.58203125 C73.76877788 121.03405311 73.24210473 122.48588337 72.71484375 123.9375 C72.47209213 124.6176416 72.22934052 125.2977832 71.97923279 125.99853516 C70.93148479 128.85535944 70.17881389 130.82118611 68 133 C65.5625 133.4375 65.5625 133.4375 63 133 C61.5 131.0625 61.5 131.0625 60 128 C59.11021398 126.39247118 58.21400249 124.78848761 57.3125 123.1875 C56.54083369 121.79212699 55.7697196 120.3964478 55 119 C53.08346849 118.99519305 53.08346849 118.99519305 51 120 C49.19056511 122.98840644 49.19056511 122.98840644 47.75 126.5625 C47.22921875 127.76003906 46.7084375 128.95757812 46.171875 130.19140625 C45.78515625 131.11824219 45.3984375 132.04507813 45 133 C32.23270954 132.5257507 19.66916264 131.66531996 7 130 C6.94506655 134.6094506 6.94254932 139.21490481 6.98779297 143.82446289 C6.9958847 145.39086045 6.98986234 146.95739896 6.96923828 148.52368164 C6.51539841 157.3027824 6.51539841 157.3027824 9.63671875 165.09619141 C11.73539123 166.45683073 13.61555061 167.26427259 16 168 C17.52367187 168.63808594 17.52367187 168.63808594 19.078125 169.2890625 C28.3448142 171.54379169 37.67723843 170.67464407 46 166 C47.7074998 164.71937515 49.39371931 163.40549561 51 162 C51.66 162 52.32 162 53 162 C53.33 161.34 53.66 160.68 54 160 C54.69222656 160.58007812 54.69222656 160.58007812 55.3984375 161.171875 C63.64622337 167.75706372 71.16284586 170.72495991 81.8125 170.3984375 C86.6494022 169.79382472 90.6452691 168.10069765 95 166 C96.65 165.34 98.3 164.68 100 164 C100 152.78 100 141.56 100 130 C94.72 130.66 89.44 131.32 84 132 C85.12505693 125.24965842 85.12505693 125.24965842 86.29101562 122.13769531 C86.54798218 121.44387756 86.80494873 120.75005981 87.06970215 120.03521729 C87.34576294 119.30687683 87.62182373 118.57853638 87.90625 117.828125 C88.33339294 116.68268219 88.33339294 116.68268219 88.76916504 115.51409912 C89.67438877 113.09080564 90.58721226 110.67045299 91.5 108.25 C92.11375366 106.60824945 92.72703977 104.96632402 93.33984375 103.32421875 C97.80668937 91.38662126 97.80668937 91.38662126 99 89 C99.06996014 87.29297265 99.08440154 85.58331997 99.0625 83.875 C99.05347656 82.96492188 99.04445313 82.05484375 99.03515625 81.1171875 C99.02355469 80.41851562 99.01195312 79.71984375 99 79 C89.04212945 74.02106473 78.12713326 74.85680998 67.23459244 74.83133507 C64.76885157 74.82406706 62.30329822 74.80832781 59.83761597 74.78999329 C52.8339896 74.73799326 45.83047563 74.68958674 38.82666016 74.67407227 C34.5225367 74.66391999 30.218903 74.63442638 25.91497421 74.59275246 C24.28935342 74.5805529 22.66366321 74.57530069 21.0379982 74.57755089 C6.15226156 74.59309232 -5.55209556 72.11200635 -17 62 C-24.03078684 54.852277 -27.15775279 45.98427614 -27.5625 36.0625 C-27.20896103 25.63880263 -23.36884762 17.45672975 -16.18359375 9.97265625 C-11.28938279 5.55123132 -6.16694827 2.32205583 0 0 Z M-12 11 C-19.50671512 19.26893542 -22.91983075 28.14946541 -22.578125 39.328125 C-21.25029801 47.76162073 -16.97639059 56.71171224 -9.94921875 61.828125 C-3.77877761 65.53780905 1.73002174 68.52587098 9 69 C6.29838335 65.45412814 3.76872301 62.70537972 0.125 60.125 C-7.36783274 54.66795578 -12.84370476 48.16748274 -15 39 C-15.95141439 29.10047303 -14.33163255 20.2809764 -11 11 C-11.33 11 -11.66 11 -12 11 Z M46 178 C43.54334803 181.68497796 43.29913509 184.71971786 44 189 C45.79363911 191.8100346 47.01880935 193.50940468 50 195 C54.41713859 195.36206054 56.94898583 195.51432609 60.9375 193.5625 C63.86781321 189.92180783 64.28831514 186.61304228 64 182 C62.77958841 178.98108712 61.80119643 177.58017673 59.1875 175.6875 C53.97127895 174.04811624 50.34335829 174.74248128 46 178 Z " fill="#000000" transform="translate(147,46)"/><path d="M0 0 C2.64 0.66 5.28 1.32 8 2 C8 4.31 8 6.62 8 9 C5.36 8.34 2.72 7.68 0 7 C0 4.69 0 2.38 0 0 Z " fill="#000000" transform="translate(146,124)"/><path d="M0 0 C0.66 0.33 1.32 0.66 2 1 C-0.55192822 10.22216019 -3.89156787 19.15065042 -7.1875 28.125 C-7.7522165 29.66917454 -8.31667168 31.21344467 -8.88085938 32.7578125 C-10.25089728 36.50631675 -11.62446063 40.25351124 -13 44 C-13.99 44 -14.98 44 -16 44 C-14.8143981 38.00718056 -13.21575396 32.40613677 -10.99609375 26.71875 C-10.71274673 25.97919067 -10.42939972 25.23963135 -10.13746643 24.47766113 C-9.54457406 22.93383001 -8.94867538 21.39115025 -8.34985352 19.84960938 C-7.42993895 17.48052781 -6.51992656 15.10781676 -5.61132812 12.734375 C-5.03181719 11.22894821 -4.45175922 9.72373185 -3.87109375 8.21875 C-3.59817001 7.50843628 -3.32524628 6.79812256 -3.04405212 6.06628418 C-1.11650848 1.11650848 -1.11650848 1.11650848 0 0 Z " fill="#000000" transform="translate(235,134)"/><path d="M0 0 C4.62 0 9.24 0 14 0 C14 2.31 14 4.62 14 7 C19.28 7.33 24.56 7.66 30 8 C29.67 10.97 29.34 13.94 29 17 C20.585 17.495 20.585 17.495 12 18 C11.67 19.98 11.34 21.96 11 24 C17.27 23.67 23.54 23.34 30 23 C30.66 20.36 31.32 17.72 32 15 C35.3 15 38.6 15 42 15 C43.60031344 18.20062687 42.03173691 20.72271806 41 24 C41.99 24 42.98 24 44 24 C43.67 27.3 43.34 30.6 43 34 C28.15 34 13.3 34 -2 34 C-12.47195735 50.04935035 -12.47195735 50.04935035 -13 62 C-0.13 62 12.74 62 26 62 C26 60.35 26 58.7 26 57 C27 56 27 56 29.94140625 55.90234375 C33.29427083 55.93489583 36.64713542 55.96744792 40 56 C39.34 61.28 38.68 66.56 38 72 C30.43776587 72.07429269 22.87574539 72.12867057 15.31323242 72.16479492 C12.7419057 72.17985844 10.17060457 72.2003132 7.59936523 72.22631836 C3.89821038 72.26280761 0.197396 72.27975121 -3.50390625 72.29296875 C-4.64896133 72.30845261 -5.79401642 72.32393646 -6.97377014 72.33988953 C-13.07508969 72.34116893 -17.68152503 72.12150514 -23 69 C-26.12500425 64.31249363 -25.38694579 59.37004297 -24.5 53.9375 C-24.335 53.298125 -24.17 52.65875 -24 52 C-26.64 52 -29.28 52 -32 52 C-31.67 48.37 -31.34 44.74 -31 41 C-27.37 41 -23.74 41 -20 41 C-19.34 39.02 -18.68 37.04 -18 35 C-18.78246094 34.95101562 -19.56492187 34.90203125 -20.37109375 34.8515625 C-21.38300781 34.77679688 -22.39492187 34.70203125 -23.4375 34.625 C-24.44683594 34.55539062 -25.45617187 34.48578125 -26.49609375 34.4140625 C-27.32238281 34.27742188 -28.14867188 34.14078125 -29 34 C-30.54578627 30.90842747 -29.60277633 28.31526981 -29 25 C-27.25493385 23.25493385 -24.80960857 23.76717216 -22.43359375 23.68359375 C-21.30888672 23.64169922 -20.18417969 23.59980469 -19.02539062 23.55664062 C-17.84138672 23.51732422 -16.65738281 23.47800781 -15.4375 23.4375 C-14.24962891 23.39431641 -13.06175781 23.35113281 -11.83789062 23.30664062 C-8.89205216 23.20016454 -5.9461257 23.09815159 -3 23 C-2.67 21.02 -2.34 19.04 -2 17 C-10.25 17 -18.5 17 -27 17 C-27 9 -27 9 -26 8 C-24.14825294 7.84213692 -22.2909089 7.74892644 -20.43359375 7.68359375 C-18.7465332 7.62075195 -18.7465332 7.62075195 -17.02539062 7.55664062 C-15.84138672 7.51732422 -14.65738281 7.47800781 -13.4375 7.4375 C-12.24962891 7.39431641 -11.06175781 7.35113281 -9.83789062 7.30664062 C-6.89205216 7.20016454 -3.9461257 7.09815159 -1 7 C-0.67 4.69 -0.34 2.38 0 0 Z " fill="#000000" transform="translate(124,269)"/><path d="M0 0 C3.63 0 7.26 0 11 0 C10.42660592 9.14489361 9.57970987 18.20636632 8.40625 27.29296875 C8.25466431 28.48682693 8.10307861 29.68068512 7.94689941 30.91072083 C7.62938757 33.40401626 7.30999498 35.89707287 6.98876953 38.38989258 C6.49637599 42.21565757 6.01146682 46.04232119 5.52734375 49.86914062 C5.21658603 52.3021396 4.90540369 54.73508438 4.59375 57.16796875 C4.44893188 58.31162399 4.30411377 59.45527924 4.15490723 60.6335907 C4.01806519 61.68931778 3.88122314 62.74504486 3.74023438 63.83276367 C3.62111694 64.76094406 3.50199951 65.68912445 3.37927246 66.64543152 C3 69 3 69 2 72 C-1.63 72 -5.26 72 -9 72 C-7.36453272 54.28961087 -5.18313001 36.64935092 -3 19 C-6.63 18.67 -10.26 18.34 -14 18 C-13.67 14.7 -13.34 11.4 -13 8 C-9.04 8 -5.08 8 -1 8 C-0.67 5.36 -0.34 2.72 0 0 Z " fill="#000000" transform="translate(256,269)"/><path d="M0 0 C9.30121326 -0.09273299 18.60226707 -0.16378149 27.90384197 -0.20724869 C32.2230889 -0.2281122 36.54201925 -0.25640687 40.86108398 -0.30175781 C45.03025735 -0.34526027 49.19912646 -0.36914641 53.36850929 -0.37950897 C54.958136 -0.3868925 56.5477463 -0.40131103 58.13724327 -0.42292023 C60.3661925 -0.45201408 62.5938891 -0.45595371 64.82299805 -0.45410156 C66.72495186 -0.46742523 66.72495186 -0.46742523 68.66532898 -0.48101807 C72.61604905 0.08886356 74.25800345 1.13771464 77 4 C79.10778599 12.877541 77.32781698 22.22285461 76.28100586 31.17041016 C76.05310289 33.21359998 75.85067607 35.25980185 75.67456055 37.30810547 C74.04425886 56.14074396 74.04425886 56.14074396 66.7691803 62.79388428 C63.94641495 65.05682554 61.05298164 67.05726077 58 69 C57.67 69.33 57.34 69.66 57 70 C55.31391034 70.07205511 53.62499341 70.08386068 51.9375 70.0625 C50.55884766 70.04896484 50.55884766 70.04896484 49.15234375 70.03515625 C48.08693359 70.01775391 48.08693359 70.01775391 47 70 C46.74498784 64.72974875 46.92341134 62.2434083 50.4453125 58.17578125 C58.01693787 51 58.01693787 51 61 51 C61.05333496 50.29182129 61.10666992 49.58364258 61.16162109 48.85400391 C61.87478299 39.81228747 62.939389 30.82981736 64.0703125 21.83203125 C64.204375 20.71957031 64.3384375 19.60710937 64.4765625 18.4609375 C64.60111816 17.45853027 64.72567383 16.45612305 64.85400391 15.42333984 C65.20336424 12.98990167 65.20336424 12.98990167 64 11 C42.55 10.67 21.1 10.34 -1 10 C-1 3 -1 3 0 0 Z " fill="#000000" transform="translate(158,271)"/><path d="M0 0 C25 0 25 0 30 3 C32.36169349 6.24863096 32.12596828 8.86051234 31.75 12.76953125 C31.64042969 13.92146973 31.53085937 15.0734082 31.41796875 16.26025391 C30.76765743 22.07886887 30.05771854 27.88648937 29.27050781 33.68823242 C28.99518257 35.72310462 28.72777896 37.75892154 28.4609375 39.79492188 C28.28820312 41.08333984 28.11546875 42.37175781 27.9375 43.69921875 C27.70353516 45.44464966 27.70353516 45.44464966 27.46484375 47.2253418 C27 50 27 50 26 52 C29.3 52 32.6 52 36 52 C37 54 37 54 35 64 C28.07 64 21.14 64 14 64 C14.67805609 52.206152 15.93378558 40.56904945 17.42138672 28.85327148 C17.70533385 26.60460863 17.98195952 24.35513659 18.2578125 22.10546875 C18.34733185 21.41913864 18.4368512 20.73280853 18.52908325 20.02568054 C19.05935917 16.40611965 19.05935917 16.40611965 18 13 C15.64400765 12.53248212 15.64400765 12.53248212 12.9375 12.375 C12.01839844 12.30023438 11.09929687 12.22546875 10.15234375 12.1484375 C9.44207031 12.09945313 8.73179687 12.05046875 8 12 C7.90203125 13.0003125 7.8040625 14.000625 7.703125 15.03125 C6.6668466 25.34611361 5.47339509 35.64058584 4.20715332 45.92944336 C4.02704681 47.39589683 3.8484226 48.8625331 3.67126465 50.3293457 C3.41933783 52.4102354 3.16166899 54.49033351 2.90234375 56.5703125 C2.75273193 57.78477051 2.60312012 58.99922852 2.44897461 60.25048828 C2 63 2 63 1 64 C-1.97 64 -4.94 64 -8 64 C-5.36 42.88 -2.72 21.76 0 0 Z " fill="#000000" transform="translate(272,277)"/><path d="M0 0 C0.85113373 -0.00960754 1.70226746 -0.01921509 2.57919312 -0.02911377 C3.50519318 -0.03336365 4.43119324 -0.03761353 5.38525391 -0.04199219 C6.33115387 -0.04769226 7.27705383 -0.05339233 8.25161743 -0.05926514 C10.25741451 -0.06873083 12.26322725 -0.07525532 14.26904297 -0.07910156 C17.34190966 -0.08880433 20.41410697 -0.11981176 23.48681641 -0.15136719 C25.43212492 -0.15789715 27.37743823 -0.16314765 29.32275391 -0.16699219 C30.24470551 -0.17933899 31.1666571 -0.19168579 32.11654663 -0.20440674 C32.97398468 -0.20140564 33.83142273 -0.19840454 34.71484375 -0.1953125 C35.46905609 -0.19895813 36.22326843 -0.20260376 37.00033569 -0.20635986 C38.98681641 0.16113281 38.98681641 0.16113281 40.8163147 1.30841064 C41.98681641 3.16113281 41.98681641 3.16113281 40.98681641 9.16113281 C25.47681641 9.16113281 9.96681641 9.16113281 -6.01318359 9.16113281 C-4.8735688 0.04421447 -4.8735688 0.04421447 0 0 Z " fill="#000000" transform="translate(179.01318359375,284.8388671875)"/><path d="M0 0 C2.97 0 5.94 0 9 0 C8.16851297 6.79990173 7.33223462 13.5991902 6.49145508 20.39794922 C6.20594694 22.71223884 5.92176286 25.0266922 5.63891602 27.34130859 C5.23278912 30.66287179 4.8219478 33.98382244 4.41015625 37.3046875 C4.28407486 38.34430634 4.15799347 39.38392517 4.02809143 40.45504761 C3.84801796 41.89631516 3.84801796 41.89631516 3.66430664 43.36669922 C3.5599379 44.21497284 3.45556915 45.06324646 3.34803772 45.93722534 C3 48 3 48 2 50 C-0.64 50 -3.28 50 -6 50 C-4.60792541 33.24015462 -2.39690739 16.64053825 0 0 Z " fill="#000000" transform="translate(241,291)"/><path d="M0 0 C14.85 0 29.7 0 45 0 C43.83705317 19.7700961 43.83705317 19.7700961 37.48046875 25.71484375 C29.88217561 31.76742697 22.53830653 31.02335556 13.3125 30.5625 C11.72472424 30.51725545 10.13682308 30.47620849 8.54882812 30.43945312 C4.69606618 30.34126857 0.84945168 30.18658789 -3 30 C-2.90718386 28.09726904 -2.81429541 26.19454154 -2.72088623 24.2918396 C-2.65129411 22.85527838 -2.58548451 21.41853233 -2.52197266 19.98168945 C-2.15217835 13.15053439 -1.05909639 6.88412653 0 0 Z M8 10 C7.74070288 11.6595016 7.54118985 13.32860493 7.375 15 C7.27960938 15.9075 7.18421875 16.815 7.0859375 17.75 C7.05757812 18.4925 7.02921875 19.235 7 20 C9.29894795 22.29894795 14.605176 21.32741324 17.6875 21.375 C19.03618164 21.43107422 19.03618164 21.43107422 20.41210938 21.48828125 C24.84191163 21.54678194 28.0243653 21.49875614 31.5859375 18.6796875 C34.29516254 15.67236003 34.90886401 14.00998351 35 10 C33.25454395 8.25454395 30.83875783 8.8697684 28.46875 8.8671875 C26.78845703 8.86525391 26.78845703 8.86525391 25.07421875 8.86328125 C23.30498047 8.86908203 23.30498047 8.86908203 21.5 8.875 C20.32050781 8.87113281 19.14101562 8.86726563 17.92578125 8.86328125 C16.80558594 8.86457031 15.68539062 8.86585938 14.53125 8.8671875 C12.97760742 8.86887939 12.97760742 8.86887939 11.39257812 8.87060547 C9.04702177 8.73034847 9.04702177 8.73034847 8 10 Z " fill="#000000" transform="translate(173,298)"/><path d="M0 0 C14.85 0 29.7 0 45 0 C45 8 45 8 44 10 C27.83 10 11.66 10 -5 10 C-3.35 6.7 -1.7 3.4 0 0 Z " fill="#000000" transform="translate(119,311)"/></svg>